<svg xmlns="http://www.w3.org/2000/svg" xmlns:xlink="http://www.w3.org/1999/xlink" width="401" zoomAndPan="magnify" viewBox="0 0 300.75 143.249994" height="191" preserveAspectRatio="xMidYMid meet" version="1.0"><defs><g/><clipPath id="c99da241ac"><rect x="0" width="143" y="0" height="103"/></clipPath><clipPath id="dabd96e7ce"><path d="M 8.882812 40 L 136.464844 40 L 136.464844 51 L 8.882812 51 Z M 8.882812 40 " clip-rule="nonzero"/></clipPath><clipPath id="410bf88ef1"><path d="M 8.882812 54 L 136.464844 54 L 136.464844 65 L 8.882812 65 Z M 8.882812 54 " clip-rule="nonzero"/></clipPath><clipPath id="d981b2c972"><path d="M 8.882812 68 L 136.464844 68 L 136.464844 78 L 8.882812 78 Z M 8.882812 68 " clip-rule="nonzero"/></clipPath><clipPath id="33ac9dc075"><path d="M 8.882812 82 L 136.464844 82 L 136.464844 92 L 8.882812 92 Z M 8.882812 82 " clip-rule="nonzero"/></clipPath><clipPath id="06341be2e4"><path d="M 8.882812 95 L 136.464844 95 L 136.464844 106 L 8.882812 106 Z M 8.882812 95 " clip-rule="nonzero"/></clipPath><clipPath id="4caaeaa381"><path d="M 15 36.523438 L 45 36.523438 L 45 120 L 15 120 Z M 15 36.523438 " clip-rule="nonzero"/></clipPath><clipPath id="0b0b8e25f8"><path d="M 12 36.523438 L 48 36.523438 L 48 123 L 12 123 Z M 12 36.523438 " clip-rule="nonzero"/></clipPath></defs><g transform="matrix(1, 0, 0, 1, 121, 19)"><g clip-path="url(#c99da241ac)"><g fill="#ffffff" fill-opacity="1"><g transform="translate(0.466955, 82.4031)"><g><path d="M 9.1875 -46.78125 L 0.765625 -46.78125 L 0.765625 -55.984375 L 30 -55.984375 L 30 -46.78125 L 21.625 -46.78125 L 21.625 0 L 9.1875 0 Z M 9.1875 -46.78125 "/></g></g></g><g fill="#ffffff" fill-opacity="1"><g transform="translate(31.210839, 82.4031)"><g><path d="M 20.3125 0.828125 C 16.125 0.828125 12.804688 0.148438 10.359375 -1.203125 C 7.921875 -2.566406 6.207031 -4.570312 5.21875 -7.21875 C 4.226562 -9.875 3.734375 -13.25 3.734375 -17.34375 L 3.734375 -55.984375 L 15.96875 -55.984375 L 15.96875 -15.484375 C 15.96875 -13.222656 16.253906 -11.421875 16.828125 -10.078125 C 17.398438 -8.742188 18.5625 -8.078125 20.3125 -8.078125 C 22.0625 -8.078125 23.210938 -8.742188 23.765625 -10.078125 C 24.328125 -11.421875 24.609375 -13.222656 24.609375 -15.484375 L 24.609375 -55.984375 L 36.90625 -55.984375 L 36.90625 -17.34375 C 36.90625 -13.25 36.394531 -9.875 35.375 -7.21875 C 34.363281 -4.570312 32.648438 -2.566406 30.234375 -1.203125 C 27.816406 0.148438 24.507812 0.828125 20.3125 0.828125 Z M 20.3125 0.828125 "/></g></g></g><g fill="#ffffff" fill-opacity="1"><g transform="translate(71.834221, 82.4031)"><g><path d="M 4.140625 -55.984375 L 12.859375 -55.984375 L 24.328125 -29.03125 L 24.328125 -55.984375 L 34.5625 -55.984375 L 34.5625 0 L 26.1875 0 L 14.71875 -29.03125 L 14.71875 0 L 4.140625 0 Z M 4.140625 -55.984375 "/></g></g></g><g fill="#ffffff" fill-opacity="1"><g transform="translate(110.592245, 82.4031)"><g><path d="M 4.140625 -55.984375 L 29.296875 -55.984375 L 29.296875 -47.546875 L 16.515625 -47.546875 L 16.515625 -33.65625 L 26.265625 -33.65625 L 26.265625 -25.09375 L 16.515625 -25.09375 L 16.515625 -8.359375 L 29.4375 -8.359375 L 29.4375 0 L 4.140625 0 Z M 4.140625 -55.984375 "/></g></g></g></g></g><path stroke-linecap="butt" transform="matrix(0.700168, 0, 0, 0.628291, -51.633579, -171.775321)" fill="none" stroke-linejoin="miter" d="M 89.254257 344.81849 L 89.254257 433.886965 " stroke="#000000" stroke-width="5.286" stroke-opacity="1" stroke-miterlimit="4"/><g clip-path="url(#dabd96e7ce)"><path stroke-linecap="butt" transform="matrix(0.700168, 0, 0, 0.628291, -51.633579, -171.775321)" fill="none" stroke-linejoin="miter" d="M 89.254257 345.527257 L 266.321195 346.24846 " stroke="#000000" stroke-width="1.25" stroke-opacity="1" stroke-miterlimit="4"/></g><g clip-path="url(#410bf88ef1)"><path stroke-linecap="butt" transform="matrix(0.700168, 0, 0, 0.628291, -51.633579, -171.775321)" fill="none" stroke-linejoin="miter" d="M 90.693644 367.492839 L 267.760582 368.207824 " stroke="#000000" stroke-width="1.25" stroke-opacity="1" stroke-miterlimit="4"/></g><g clip-path="url(#d981b2c972)"><path stroke-linecap="butt" transform="matrix(0.700168, 0, 0, 0.628291, -51.633579, -171.775321)" fill="none" stroke-linejoin="miter" d="M 91.413338 389.259469 L 268.480276 389.980671 " stroke="#000000" stroke-width="1.25" stroke-opacity="1" stroke-miterlimit="4"/></g><g clip-path="url(#33ac9dc075)"><path stroke-linecap="butt" transform="matrix(0.700168, 0, 0, 0.628291, -51.633579, -171.775321)" fill="none" stroke-linejoin="miter" d="M 89.611314 411.479958 L 266.683831 412.20116 " stroke="#000000" stroke-width="1.25" stroke-opacity="1" stroke-miterlimit="4"/></g><g clip-path="url(#06341be2e4)"><path stroke-linecap="butt" transform="matrix(0.700168, 0, 0, 0.628291, -51.633579, -171.775321)" fill="none" stroke-linejoin="miter" d="M 90.331008 433.259022 L 267.403525 433.980224 " stroke="#000000" stroke-width="1.25" stroke-opacity="1" stroke-miterlimit="4"/></g><path fill="#ffffff" d="M 66.550781 99.203125 C 66.550781 99.570312 66.511719 99.933594 66.429688 100.292969 C 66.351562 100.65625 66.230469 101.003906 66.074219 101.34375 C 65.917969 101.683594 65.722656 102.003906 65.496094 102.3125 C 65.265625 102.617188 65.007812 102.898438 64.714844 103.160156 C 64.425781 103.417969 64.109375 103.652344 63.765625 103.855469 C 63.425781 104.058594 63.0625 104.230469 62.683594 104.371094 C 62.304688 104.511719 61.910156 104.621094 61.507812 104.691406 C 61.105469 104.761719 60.699219 104.796875 60.285156 104.796875 C 59.875 104.796875 59.46875 104.761719 59.0625 104.691406 C 58.660156 104.621094 58.269531 104.511719 57.890625 104.371094 C 57.507812 104.230469 57.148438 104.058594 56.804688 103.855469 C 56.464844 103.652344 56.148438 103.417969 55.855469 103.160156 C 55.566406 102.898438 55.304688 102.617188 55.078125 102.3125 C 54.847656 102.003906 54.65625 101.683594 54.5 101.34375 C 54.339844 101.003906 54.222656 100.65625 54.140625 100.292969 C 54.0625 99.933594 54.023438 99.570312 54.023438 99.203125 C 54.023438 98.835938 54.0625 98.472656 54.140625 98.109375 C 54.222656 97.75 54.339844 97.398438 54.5 97.0625 C 54.65625 96.722656 54.847656 96.398438 55.078125 96.09375 C 55.304688 95.789062 55.566406 95.503906 55.855469 95.246094 C 56.148438 94.984375 56.464844 94.753906 56.804688 94.550781 C 57.148438 94.34375 57.507812 94.171875 57.890625 94.03125 C 58.269531 93.890625 58.660156 93.785156 59.0625 93.714844 C 59.46875 93.640625 59.875 93.605469 60.285156 93.605469 C 60.699219 93.605469 61.105469 93.640625 61.507812 93.714844 C 61.910156 93.785156 62.304688 93.890625 62.683594 94.03125 C 63.0625 94.171875 63.425781 94.34375 63.765625 94.550781 C 64.109375 94.753906 64.425781 94.984375 64.714844 95.246094 C 65.007812 95.503906 65.265625 95.789062 65.496094 96.09375 C 65.722656 96.398438 65.917969 96.722656 66.074219 97.0625 C 66.230469 97.398438 66.351562 97.75 66.429688 98.109375 C 66.511719 98.472656 66.550781 98.835938 66.550781 99.203125 Z M 66.550781 99.203125 " fill-opacity="1" fill-rule="nonzero"/><path stroke-linecap="round" transform="matrix(0.628291, 0, 0, 0.628291, -86.01053, 54.638226)" fill="none" stroke-linejoin="round" d="M 241.762504 71.185236 C 243.285733 55.915644 242.266102 39.626421 238.703612 20.794338 C 242.098236 23.001466 250.074981 26.731822 254.992834 26.39609 " stroke="#000000" stroke-width="2.5" stroke-opacity="1" stroke-miterlimit="4"/><path fill="#ffffff" d="M 88.359375 80.089844 C 88.359375 80.460938 88.320312 80.824219 88.238281 81.183594 C 88.160156 81.542969 88.039062 81.894531 87.882812 82.234375 C 87.726562 82.574219 87.53125 82.894531 87.304688 83.199219 C 87.074219 83.507812 86.816406 83.789062 86.523438 84.046875 C 86.234375 84.308594 85.917969 84.539062 85.574219 84.746094 C 85.234375 84.949219 84.871094 85.121094 84.492188 85.261719 C 84.113281 85.402344 83.71875 85.507812 83.316406 85.582031 C 82.914062 85.652344 82.503906 85.6875 82.09375 85.6875 C 81.683594 85.6875 81.277344 85.652344 80.871094 85.582031 C 80.46875 85.507812 80.078125 85.402344 79.695312 85.261719 C 79.316406 85.121094 78.957031 84.949219 78.613281 84.746094 C 78.273438 84.539062 77.957031 84.308594 77.664062 84.046875 C 77.375 83.789062 77.113281 83.507812 76.886719 83.199219 C 76.65625 82.894531 76.464844 82.574219 76.308594 82.234375 C 76.148438 81.894531 76.03125 81.542969 75.949219 81.183594 C 75.871094 80.824219 75.828125 80.460938 75.828125 80.089844 C 75.828125 79.722656 75.871094 79.359375 75.949219 79 C 76.03125 78.640625 76.148438 78.289062 76.308594 77.949219 C 76.464844 77.609375 76.65625 77.289062 76.886719 76.984375 C 77.113281 76.675781 77.375 76.394531 77.664062 76.132812 C 77.957031 75.875 78.273438 75.644531 78.613281 75.4375 C 78.957031 75.234375 79.316406 75.0625 79.695312 74.921875 C 80.078125 74.78125 80.46875 74.675781 80.871094 74.601562 C 81.277344 74.53125 81.683594 74.496094 82.09375 74.496094 C 82.503906 74.496094 82.914062 74.53125 83.316406 74.601562 C 83.71875 74.675781 84.113281 74.78125 84.492188 74.921875 C 84.871094 75.0625 85.234375 75.234375 85.574219 75.4375 C 85.917969 75.644531 86.234375 75.875 86.523438 76.132812 C 86.816406 76.394531 87.074219 76.675781 87.304688 76.984375 C 87.53125 77.289062 87.726562 77.609375 87.882812 77.949219 C 88.039062 78.289062 88.160156 78.640625 88.238281 79 C 88.320312 79.359375 88.359375 79.722656 88.359375 80.089844 Z M 88.359375 80.089844 " fill-opacity="1" fill-rule="nonzero"/><path fill="#ffffff" d="M 104.3125 86.984375 C 104.3125 87.351562 104.269531 87.714844 104.191406 88.078125 C 104.109375 88.4375 103.992188 88.785156 103.835938 89.125 C 103.675781 89.464844 103.484375 89.789062 103.253906 90.09375 C 103.027344 90.398438 102.765625 90.683594 102.476562 90.941406 C 102.1875 91.203125 101.871094 91.433594 101.527344 91.636719 C 101.183594 91.839844 100.824219 92.015625 100.445312 92.15625 C 100.0625 92.296875 99.671875 92.402344 99.269531 92.472656 C 98.867188 92.542969 98.457031 92.582031 98.046875 92.582031 C 97.636719 92.582031 97.226562 92.542969 96.824219 92.472656 C 96.421875 92.402344 96.03125 92.296875 95.648438 92.15625 C 95.269531 92.015625 94.910156 91.839844 94.566406 91.636719 C 94.222656 91.433594 93.90625 91.203125 93.617188 90.941406 C 93.324219 90.683594 93.066406 90.398438 92.839844 90.09375 C 92.609375 89.789062 92.417969 89.464844 92.257812 89.125 C 92.101562 88.785156 91.984375 88.4375 91.902344 88.078125 C 91.820312 87.714844 91.78125 87.351562 91.78125 86.984375 C 91.78125 86.617188 91.820312 86.253906 91.902344 85.894531 C 91.984375 85.53125 92.101562 85.183594 92.257812 84.84375 C 92.417969 84.503906 92.609375 84.179688 92.839844 83.875 C 93.066406 83.570312 93.324219 83.289062 93.617188 83.027344 C 93.90625 82.769531 94.222656 82.535156 94.566406 82.332031 C 94.910156 82.128906 95.269531 81.953125 95.648438 81.8125 C 96.03125 81.671875 96.421875 81.566406 96.824219 81.496094 C 97.226562 81.425781 97.636719 81.386719 98.046875 81.386719 C 98.457031 81.386719 98.867188 81.425781 99.269531 81.496094 C 99.671875 81.566406 100.0625 81.671875 100.445312 81.8125 C 100.824219 81.953125 101.183594 82.128906 101.527344 82.332031 C 101.871094 82.535156 102.1875 82.769531 102.476562 83.027344 C 102.765625 83.289062 103.027344 83.570312 103.253906 83.875 C 103.484375 84.179688 103.675781 84.503906 103.835938 84.84375 C 103.992188 85.183594 104.109375 85.53125 104.191406 85.894531 C 104.269531 86.253906 104.3125 86.617188 104.3125 86.984375 Z M 104.3125 86.984375 " fill-opacity="1" fill-rule="nonzero"/><path stroke-linecap="round" transform="matrix(0.628291, 0, 0, 0.628291, -64.397317, 46.417665)" fill="none" stroke-linejoin="round" d="M 242.061042 54.357993 C 243.584271 39.088401 242.570858 22.805395 239.008367 3.973313 C 247.320845 9.655889 255.490325 15.238989 266.936302 17.906194 C 269.970325 26.709835 272.171236 56.055305 267.50829 65.051681 " stroke="#000000" stroke-width="2.5" stroke-opacity="1" stroke-miterlimit="4"/><path stroke-linecap="round" transform="matrix(0.628291, 0, 0, 0.628291, -64.397317, 46.417665)" fill="none" stroke-linejoin="round" d="M 240.407251 11.12938 C 248.725946 16.811956 256.895426 22.395056 268.341403 25.062261 " stroke="#000000" stroke-width="2.5" stroke-opacity="1" stroke-miterlimit="4"/><path fill="#ffffff" d="M 124.191406 59.796875 C 124.191406 59.429688 124.152344 59.066406 124.070312 58.703125 C 123.988281 58.34375 123.871094 57.992188 123.714844 57.65625 C 123.554688 57.316406 123.363281 56.992188 123.136719 56.6875 C 122.90625 56.382812 122.648438 56.097656 122.355469 55.839844 C 122.066406 55.578125 121.75 55.347656 121.40625 55.144531 C 121.0625 54.9375 120.703125 54.765625 120.324219 54.625 C 119.941406 54.484375 119.550781 54.378906 119.148438 54.308594 C 118.746094 54.234375 118.335938 54.199219 117.925781 54.199219 C 117.515625 54.199219 117.105469 54.234375 116.703125 54.308594 C 116.300781 54.378906 115.910156 54.484375 115.527344 54.625 C 115.148438 54.765625 114.789062 54.9375 114.445312 55.144531 C 114.101562 55.347656 113.785156 55.578125 113.496094 55.839844 C 113.207031 56.097656 112.945312 56.382812 112.71875 56.6875 C 112.488281 56.992188 112.296875 57.316406 112.136719 57.65625 C 111.980469 57.992188 111.863281 58.34375 111.78125 58.703125 C 111.703125 59.066406 111.660156 59.429688 111.660156 59.796875 C 111.660156 60.164062 111.703125 60.527344 111.78125 60.886719 C 111.863281 61.246094 111.980469 61.597656 112.136719 61.9375 C 112.296875 62.277344 112.488281 62.597656 112.71875 62.90625 C 112.945312 63.210938 113.207031 63.492188 113.496094 63.753906 C 113.785156 64.011719 114.101562 64.246094 114.445312 64.449219 C 114.789062 64.652344 115.148438 64.824219 115.527344 64.964844 C 115.910156 65.105469 116.300781 65.210938 116.703125 65.285156 C 117.105469 65.355469 117.515625 65.390625 117.925781 65.390625 C 118.335938 65.390625 118.746094 65.355469 119.148438 65.285156 C 119.550781 65.210938 119.941406 65.105469 120.324219 64.964844 C 120.703125 64.824219 121.0625 64.652344 121.40625 64.449219 C 121.75 64.246094 122.066406 64.011719 122.355469 63.753906 C 122.648438 63.492188 122.90625 63.210938 123.136719 62.90625 C 123.363281 62.597656 123.554688 62.277344 123.714844 61.9375 C 123.871094 61.597656 123.988281 61.246094 124.070312 60.886719 C 124.152344 60.527344 124.191406 60.164062 124.191406 59.796875 Z M 124.191406 59.796875 " fill-opacity="1" fill-rule="nonzero"/><path stroke-linecap="round" transform="matrix(0.628291, 0, 0, -0.628291, -28.374871, 104.358673)" fill="none" stroke-linejoin="round" d="M 241.757974 71.186517 C 243.287421 55.916925 238.7053 34.541983 240.234746 21.81525 C 246.17223 21.983117 250.070452 19.608123 252.445445 16.723314 " stroke="#000000" stroke-width="2.5" stroke-opacity="1" stroke-miterlimit="4"/><g clip-path="url(#4caaeaa381)"><path fill="#ffffff" d="M 26.546875 114.921875 C 26.558594 119.8125 37.269531 119.191406 37.230469 111.121094 C 37.246094 103.261719 27 59.273438 26.886719 50.859375 C 26.765625 44.183594 30.375 36.699219 33.46875 36.78125 C 35.917969 36.863281 38.21875 42.484375 38.207031 49.484375 C 38.390625 72.113281 18.839844 70.652344 18.839844 86.117188 C 18.839844 96.113281 27.027344 98.753906 31.117188 98.753906 C 44.976562 98.65625 42.652344 81.777344 33.816406 81.777344 C 28.609375 81.589844 24.050781 88.757812 30.933594 94.695312 C 19.308594 89.511719 25.539062 76.96875 34.746094 76.875 C 47.023438 76.96875 49.164062 99.789062 31.117188 99.882812 C 20.328125 99.976562 15.773438 90.359375 15.863281 82.816406 C 15.863281 68.292969 36.980469 59.902344 36.699219 47.644531 C 36.699219 39.910156 28.792969 43.398438 28.609375 55.847656 C 28.792969 63.578125 38.652344 104.410156 38.558594 110.726562 C 38.558594 123.742188 22.097656 119.496094 22.097656 112.898438 C 22.191406 103.46875 31.769531 110.160156 28.792969 110.445312 C 26.46875 114.59375 26.546875 114.917969 26.546875 114.917969 Z M 26.546875 114.921875 " fill-opacity="1" fill-rule="nonzero"/></g><g clip-path="url(#0b0b8e25f8)"><path stroke-linecap="butt" transform="matrix(0.56986, 0, 0, 0.577733, 4.012283, 33.754454)" fill="none" stroke-linejoin="miter" d="M 39.544075 140.493043 C 39.564639 148.958247 58.36037 147.883193 58.291822 133.914254 C 58.319241 120.310427 40.339226 44.170919 40.140438 29.606982 C 39.927941 18.051843 46.261732 5.097106 51.690696 5.239094 C 55.988625 5.381082 60.026074 15.110658 60.00551 27.226988 C 60.327684 66.395461 26.019649 63.866718 26.019649 90.634883 C 26.019649 107.937166 40.387209 112.507835 47.564135 112.507835 C 71.884796 112.338801 67.806218 83.123029 52.300769 83.123029 C 43.163384 82.798484 35.163888 95.205553 47.241962 105.482797 C 26.842219 96.510492 37.775549 74.799813 53.9322 74.637541 C 75.476686 74.799813 79.23309 114.299591 47.564135 114.461864 C 28.631309 114.624136 20.638668 97.977704 20.796327 84.921547 C 20.796327 59.782865 57.853118 45.259496 57.359576 24.042395 C 57.359576 10.654931 43.485557 16.692813 43.163384 38.24122 C 43.485557 51.621922 60.786952 122.298263 60.622438 133.231358 C 60.622438 155.76016 31.736512 148.410578 31.736512 136.990666 C 31.901026 120.668779 48.708878 132.250963 43.485557 132.744541 C 39.40698 139.92509 39.544075 140.486281 39.544075 140.486281 Z M 39.544075 140.493043 " stroke="#000000" stroke-width="1" stroke-opacity="1" stroke-miterlimit="4"/></g><path stroke-linecap="butt" transform="matrix(0.56986, 0, 0, 0.577733, 4.012283, 33.754454)" fill-opacity="1" fill="#ffffff" fill-rule="nonzero" stroke-linejoin="miter" d="M 47.372202 133.386869 C 47.372202 137.179984 44.212161 140.256396 40.318662 140.256396 C 36.425162 140.256396 33.265122 137.179984 33.265122 133.386869 C 33.265122 129.600516 36.425162 126.524104 40.318662 126.524104 C 44.212161 126.524104 47.372202 129.600516 47.372202 133.386869 Z M 47.372202 133.386869 " stroke="#000000" stroke-width="1" stroke-opacity="1" stroke-miterlimit="4"/><path fill="#ffffff" d="M 35.371094 97.871094 L 36.691406 97.871094 L 36.691406 99.171875 L 35.371094 99.171875 Z M 35.371094 97.871094 " fill-opacity="1" fill-rule="nonzero"/><path fill="#ffffff" d="M 31.527344 77.472656 L 33.199219 77.472656 L 33.199219 81.699219 L 31.527344 81.699219 Z M 31.527344 77.472656 " fill-opacity="1" fill-rule="nonzero"/><path fill="#ffffff" d="M 28.558594 61.78125 L 29.351562 61.640625 L 30.46875 69.117188 L 29.675781 69.253906 Z M 28.558594 61.78125 " fill-opacity="1" fill-rule="nonzero"/><g fill="#ffffff" fill-opacity="1"><g transform="translate(120.630924, 120.815038)"><g><path d="M 6.046875 0 L 2.515625 -9.234375 L 2.453125 -9.234375 C 2.515625 -8.503906 2.546875 -7.632812 2.546875 -6.625 L 2.546875 0 L 1.4375 0 L 1.4375 -10.421875 L 3.25 -10.421875 L 6.5625 -1.828125 L 6.609375 -1.828125 L 9.9375 -10.421875 L 11.75 -10.421875 L 11.75 0 L 10.546875 0 L 10.546875 -6.71875 C 10.546875 -7.476562 10.578125 -8.3125 10.640625 -9.21875 L 10.578125 -9.21875 L 7.015625 0 Z M 6.046875 0 "/></g></g></g><g fill="#ffffff" fill-opacity="1"><g transform="translate(133.808171, 120.815038)"><g><path d="M 9.296875 -10.421875 L 9.296875 -3.671875 C 9.296875 -2.484375 8.9375 -1.550781 8.21875 -0.875 C 7.5 -0.195312 6.515625 0.140625 5.265625 0.140625 C 4.015625 0.140625 3.046875 -0.195312 2.359375 -0.875 C 1.671875 -1.5625 1.328125 -2.503906 1.328125 -3.703125 L 1.328125 -10.421875 L 2.53125 -10.421875 L 2.53125 -3.625 C 2.53125 -2.75 2.769531 -2.078125 3.25 -1.609375 C 3.726562 -1.148438 4.425781 -0.921875 5.34375 -0.921875 C 6.21875 -0.921875 6.894531 -1.15625 7.375 -1.625 C 7.851562 -2.09375 8.09375 -2.765625 8.09375 -3.640625 L 8.09375 -10.421875 Z M 9.296875 -10.421875 "/></g></g></g><g fill="#ffffff" fill-opacity="1"><g transform="translate(144.434064, 120.815038)"><g><path d="M 7.3125 -2.765625 C 7.3125 -1.847656 6.976562 -1.132812 6.3125 -0.625 C 5.644531 -0.113281 4.742188 0.140625 3.609375 0.140625 C 2.367188 0.140625 1.414062 -0.015625 0.75 -0.328125 L 0.75 -1.5 C 1.175781 -1.320312 1.640625 -1.179688 2.140625 -1.078125 C 2.648438 -0.972656 3.15625 -0.921875 3.65625 -0.921875 C 4.457031 -0.921875 5.0625 -1.070312 5.46875 -1.375 C 5.875 -1.6875 6.078125 -2.113281 6.078125 -2.65625 C 6.078125 -3.019531 6.003906 -3.316406 5.859375 -3.546875 C 5.722656 -3.773438 5.484375 -3.984375 5.140625 -4.171875 C 4.796875 -4.367188 4.28125 -4.59375 3.59375 -4.84375 C 2.625 -5.1875 1.929688 -5.597656 1.515625 -6.078125 C 1.097656 -6.554688 0.890625 -7.175781 0.890625 -7.9375 C 0.890625 -8.738281 1.191406 -9.375 1.796875 -9.84375 C 2.398438 -10.320312 3.195312 -10.5625 4.1875 -10.5625 C 5.226562 -10.5625 6.179688 -10.375 7.046875 -10 L 6.671875 -8.9375 C 5.804688 -9.300781 4.96875 -9.484375 4.15625 -9.484375 C 3.519531 -9.484375 3.019531 -9.34375 2.65625 -9.0625 C 2.289062 -8.789062 2.109375 -8.410156 2.109375 -7.921875 C 2.109375 -7.554688 2.175781 -7.257812 2.3125 -7.03125 C 2.445312 -6.800781 2.671875 -6.585938 2.984375 -6.390625 C 3.304688 -6.203125 3.789062 -5.992188 4.4375 -5.765625 C 5.53125 -5.378906 6.28125 -4.960938 6.6875 -4.515625 C 7.101562 -4.066406 7.3125 -3.484375 7.3125 -2.765625 Z M 7.3125 -2.765625 "/></g></g></g><g fill="#ffffff" fill-opacity="1"><g transform="translate(152.444462, 120.815038)"><g><path d="M 1.4375 0 L 1.4375 -10.421875 L 2.640625 -10.421875 L 2.640625 0 Z M 1.4375 0 "/></g></g></g><g fill="#ffffff" fill-opacity="1"><g transform="translate(156.513801, 120.815038)"><g><path d="M 5.890625 -9.484375 C 4.742188 -9.484375 3.835938 -9.101562 3.171875 -8.34375 C 2.515625 -7.582031 2.1875 -6.535156 2.1875 -5.203125 C 2.1875 -3.835938 2.503906 -2.785156 3.140625 -2.046875 C 3.785156 -1.304688 4.695312 -0.9375 5.875 -0.9375 C 6.601562 -0.9375 7.429688 -1.066406 8.359375 -1.328125 L 8.359375 -0.265625 C 7.640625 0.00390625 6.75 0.140625 5.6875 0.140625 C 4.15625 0.140625 2.972656 -0.320312 2.140625 -1.25 C 1.304688 -2.1875 0.890625 -3.507812 0.890625 -5.21875 C 0.890625 -6.289062 1.085938 -7.226562 1.484375 -8.03125 C 1.890625 -8.84375 2.472656 -9.46875 3.234375 -9.90625 C 3.992188 -10.34375 4.882812 -10.5625 5.90625 -10.5625 C 7 -10.5625 7.953125 -10.363281 8.765625 -9.96875 L 8.265625 -8.921875 C 7.472656 -9.296875 6.679688 -9.484375 5.890625 -9.484375 Z M 5.890625 -9.484375 "/></g></g></g><g fill="#ffffff" fill-opacity="1"><g transform="translate(165.721482, 120.815038)"><g/></g></g><g fill="#ffffff" fill-opacity="1"><g transform="translate(169.51288, 120.815038)"><g><path d="M 8.03125 -7.375 C 8.03125 -6.320312 7.671875 -5.507812 6.953125 -4.9375 C 6.234375 -4.375 5.207031 -4.09375 3.875 -4.09375 L 2.640625 -4.09375 L 2.640625 0 L 1.4375 0 L 1.4375 -10.421875 L 4.140625 -10.421875 C 6.734375 -10.421875 8.03125 -9.40625 8.03125 -7.375 Z M 2.640625 -5.140625 L 3.734375 -5.140625 C 4.804688 -5.140625 5.582031 -5.3125 6.0625 -5.65625 C 6.539062 -6 6.78125 -6.554688 6.78125 -7.328125 C 6.78125 -8.015625 6.554688 -8.523438 6.109375 -8.859375 C 5.660156 -9.203125 4.957031 -9.375 4 -9.375 L 2.640625 -9.375 Z M 2.640625 -5.140625 "/></g></g></g><g fill="#ffffff" fill-opacity="1"><g transform="translate(178.300087, 120.815038)"><g><path d="M 1.4375 0 L 1.4375 -10.421875 L 2.640625 -10.421875 L 2.640625 -1.09375 L 7.234375 -1.09375 L 7.234375 0 Z M 1.4375 0 "/></g></g></g><g fill="#ffffff" fill-opacity="1"><g transform="translate(185.875757, 120.815038)"><g><path d="M 7.984375 0 L 6.6875 -3.3125 L 2.515625 -3.3125 L 1.21875 0 L 0 0 L 4.125 -10.453125 L 5.140625 -10.453125 L 9.234375 0 Z M 6.3125 -4.40625 L 5.09375 -7.625 C 4.9375 -8.039062 4.773438 -8.546875 4.609375 -9.140625 C 4.503906 -8.679688 4.351562 -8.175781 4.15625 -7.625 L 2.9375 -4.40625 Z M 6.3125 -4.40625 "/></g></g></g><g fill="#ffffff" fill-opacity="1"><g transform="translate(195.111945, 120.815038)"><g><path d="M 4.078125 -5.203125 L 6.859375 -10.421875 L 8.171875 -10.421875 L 4.703125 -4.046875 L 4.703125 0 L 3.46875 0 L 3.46875 -3.984375 L 0 -10.421875 L 1.328125 -10.421875 Z M 4.078125 -5.203125 "/></g></g></g><g fill="#ffffff" fill-opacity="1"><g transform="translate(203.286256, 120.815038)"><g><path d="M 1.4375 0 L 1.4375 -10.421875 L 2.640625 -10.421875 L 2.640625 -1.09375 L 7.234375 -1.09375 L 7.234375 0 Z M 1.4375 0 "/></g></g></g><g fill="#ffffff" fill-opacity="1"><g transform="translate(210.861926, 120.815038)"><g><path d="M 1.4375 0 L 1.4375 -10.421875 L 2.640625 -10.421875 L 2.640625 0 Z M 1.4375 0 "/></g></g></g><g fill="#ffffff" fill-opacity="1"><g transform="translate(214.931265, 120.815038)"><g><path d="M 7.3125 -2.765625 C 7.3125 -1.847656 6.976562 -1.132812 6.3125 -0.625 C 5.644531 -0.113281 4.742188 0.140625 3.609375 0.140625 C 2.367188 0.140625 1.414062 -0.015625 0.75 -0.328125 L 0.75 -1.5 C 1.175781 -1.320312 1.640625 -1.179688 2.140625 -1.078125 C 2.648438 -0.972656 3.15625 -0.921875 3.65625 -0.921875 C 4.457031 -0.921875 5.0625 -1.070312 5.46875 -1.375 C 5.875 -1.6875 6.078125 -2.113281 6.078125 -2.65625 C 6.078125 -3.019531 6.003906 -3.316406 5.859375 -3.546875 C 5.722656 -3.773438 5.484375 -3.984375 5.140625 -4.171875 C 4.796875 -4.367188 4.28125 -4.59375 3.59375 -4.84375 C 2.625 -5.1875 1.929688 -5.597656 1.515625 -6.078125 C 1.097656 -6.554688 0.890625 -7.175781 0.890625 -7.9375 C 0.890625 -8.738281 1.191406 -9.375 1.796875 -9.84375 C 2.398438 -10.320312 3.195312 -10.5625 4.1875 -10.5625 C 5.226562 -10.5625 6.179688 -10.375 7.046875 -10 L 6.671875 -8.9375 C 5.804688 -9.300781 4.96875 -9.484375 4.15625 -9.484375 C 3.519531 -9.484375 3.019531 -9.34375 2.65625 -9.0625 C 2.289062 -8.789062 2.109375 -8.410156 2.109375 -7.921875 C 2.109375 -7.554688 2.175781 -7.257812 2.3125 -7.03125 C 2.445312 -6.800781 2.671875 -6.585938 2.984375 -6.390625 C 3.304688 -6.203125 3.789062 -5.992188 4.4375 -5.765625 C 5.53125 -5.378906 6.28125 -4.960938 6.6875 -4.515625 C 7.101562 -4.066406 7.3125 -3.484375 7.3125 -2.765625 Z M 7.3125 -2.765625 "/></g></g></g><g fill="#ffffff" fill-opacity="1"><g transform="translate(222.941663, 120.815038)"><g><path d="M 4.640625 0 L 3.421875 0 L 3.421875 -9.34375 L 0.125 -9.34375 L 0.125 -10.421875 L 7.9375 -10.421875 L 7.9375 -9.34375 L 4.640625 -9.34375 Z M 4.640625 0 "/></g></g></g><g fill="#ffffff" fill-opacity="1"><g transform="translate(231.016201, 120.815038)"><g/></g></g><g fill="#ffffff" fill-opacity="1"><g transform="translate(234.807599, 120.815038)"><g><path d="M 7.984375 0 L 6.6875 -3.3125 L 2.515625 -3.3125 L 1.21875 0 L 0 0 L 4.125 -10.453125 L 5.140625 -10.453125 L 9.234375 0 Z M 6.3125 -4.40625 L 5.09375 -7.625 C 4.9375 -8.039062 4.773438 -8.546875 4.609375 -9.140625 C 4.503906 -8.679688 4.351562 -8.175781 4.15625 -7.625 L 2.9375 -4.40625 Z M 6.3125 -4.40625 "/></g></g></g><g fill="#ffffff" fill-opacity="1"><g transform="translate(244.043787, 120.815038)"><g><path d="M 8.03125 -7.375 C 8.03125 -6.320312 7.671875 -5.507812 6.953125 -4.9375 C 6.234375 -4.375 5.207031 -4.09375 3.875 -4.09375 L 2.640625 -4.09375 L 2.640625 0 L 1.4375 0 L 1.4375 -10.421875 L 4.140625 -10.421875 C 6.734375 -10.421875 8.03125 -9.40625 8.03125 -7.375 Z M 2.640625 -5.140625 L 3.734375 -5.140625 C 4.804688 -5.140625 5.582031 -5.3125 6.0625 -5.65625 C 6.539062 -6 6.78125 -6.554688 6.78125 -7.328125 C 6.78125 -8.015625 6.554688 -8.523438 6.109375 -8.859375 C 5.660156 -9.203125 4.957031 -9.375 4 -9.375 L 2.640625 -9.375 Z M 2.640625 -5.140625 "/></g></g></g><g fill="#ffffff" fill-opacity="1"><g transform="translate(252.830994, 120.815038)"><g><path d="M 8.03125 -7.375 C 8.03125 -6.320312 7.671875 -5.507812 6.953125 -4.9375 C 6.234375 -4.375 5.207031 -4.09375 3.875 -4.09375 L 2.640625 -4.09375 L 2.640625 0 L 1.4375 0 L 1.4375 -10.421875 L 4.140625 -10.421875 C 6.734375 -10.421875 8.03125 -9.40625 8.03125 -7.375 Z M 2.640625 -5.140625 L 3.734375 -5.140625 C 4.804688 -5.140625 5.582031 -5.3125 6.0625 -5.65625 C 6.539062 -6 6.78125 -6.554688 6.78125 -7.328125 C 6.78125 -8.015625 6.554688 -8.523438 6.109375 -8.859375 C 5.660156 -9.203125 4.957031 -9.375 4 -9.375 L 2.640625 -9.375 Z M 2.640625 -5.140625 "/></g></g></g></svg>